RWalking1.mot
version=1
datacolumns 20
datarows 20
range 3.420000 3.610000
inDegrees=yes
endheader
time	pelvis_tilt	pelvis_list	pelvis_rotation	hip_flexion_r	hip_adduction_r	hip_rotation_r	knee_angle_r	ankle_angle_r	hip_flexion_l	hip_adduction_l	hip_rotation_l	knee_angle_l	ankle_angle_l	pelvis_tx	pelvis_ty	pelvis_tz	lumbar_bending	lumbar_rotation	lumbar_extension
3.420000	-7.010000	-1.900000	-2.580000	-10.580000	5.600000	-7.730000	-0.110000	11.370000	32.160000	7.170000	1.980000	-3.940000	1.150000	2.310000	0.930000	0.000000	-0.000000	-0.000000	0.000000
3.430000	-7.390000	-1.870000	-2.540000	-10.590000	5.450000	-7.850000	-0.980000	11.800000	32.440000	7.040000	1.480000	-3.350000	0.860000	2.330000	0.920000	-0.000000	-0.000000	-0.000000	0.000000
3.440000	-7.840000	-1.740000	-2.360000	-10.430000	5.200000	-7.950000	-2.040000	12.200000	32.840000	6.700000	0.880000	-3.200000	0.180000	2.340000	0.920000	-0.000000	-0.000000	-0.000000	0.000000
3.450000	-8.330000	-1.530000	-2.050000	-10.150000	4.880000	-8.000000	-3.280000	12.540000	33.310000	6.200000	0.230000	-3.480000	-0.860000	2.350000	0.920000	-0.010000	-0.000000	-0.000000	0.000000
3.460000	-8.840000	-1.280000	-1.650000	-9.780000	4.500000	-7.980000	-4.710000	12.740000	33.850000	5.580000	-0.410000	-4.130000	-2.170000	2.370000	0.920000	-0.010000	-0.000000	-0.000000	0.000000
3.470000	-9.340000	-1.000000	-1.200000	-9.320000	4.080000	-7.820000	-6.350000	12.720000	34.390000	4.890000	-0.980000	-5.100000	-3.610000	2.380000	0.920000	-0.010000	-0.000000	-0.000000	0.000000
3.480000	-9.790000	-0.680000	-0.760000	-8.800000	3.590000	-7.460000	-8.230000	12.360000	34.880000	4.160000	-1.430000	-6.290000	-5.010000	2.400000	0.920000	-0.010000	-0.000000	-0.000000	0.000000
3.490000	-10.170000	-0.330000	-0.370000	-8.200000	3.030000	-6.840000	-10.390000	11.520000	35.270000	3.440000	-1.730000	-7.640000	-6.190000	2.410000	0.920000	-0.010000	-0.000000	-0.000000	0.000000
3.500000	-10.450000	0.030000	-0.060000	-7.490000	2.410000	-5.950000	-12.880000	10.100000	35.530000	2.750000	-1.850000	-9.080000	-7.000000	2.430000	0.920000	-0.020000	-0.000000	-0.000000	0.000000
3.510000	-10.620000	0.420000	0.180000	-6.660000	1.730000	-4.830000	-15.710000	8.110000	35.620000	2.120000	-1.790000	-10.580000	-7.340000	2.440000	0.920000	-0.020000	-0.000000	-0.000000	0.000000
3.520000	-10.630000	0.840000	0.320000	-5.740000	0.990000	-3.610000	-18.830000	5.620000	35.530000	1.530000	-1.550000	-12.070000	-7.230000	2.460000	0.920000	-0.020000	-0.000000	-0.000000	0.000000
3.530000	-10.490000	1.310000	0.390000	-4.770000	0.170000	-2.460000	-22.100000	2.880000	35.240000	0.970000	-1.140000	-13.480000	-6.760000	2.470000	0.920000	-0.030000	-0.000000	-0.000000	0.000000
3.540000	-10.230000	1.840000	0.370000	-3.840000	-0.700000	-1.590000	-25.240000	0.280000	34.790000	0.410000	-0.620000	-14.670000	-6.150000	2.480000	0.920000	-0.030000	-0.000000	-0.000000	0.000000
3.550000	-9.940000	2.420000	0.310000	-3.050000	-1.590000	-1.280000	-27.830000	-1.650000	34.290000	-0.180000	-0.200000	-15.440000	-5.670000	2.490000	0.920000	-0.030000	-0.000000	-0.000000	0.000000
3.560000	-9.630000	3.160000	0.250000	-2.280000	-2.680000	-1.700000	-30.220000	-3.020000	33.690000	-0.980000	0.060000	-15.840000	-5.430000	2.500000	0.920000	-0.030000	-0.000000	-0.000000	0.000000
3.570000	-9.090000	4.570000	0.130000	-0.970000	-4.770000	-2.890000	-34.300000	-5.020000	32.610000	-2.530000	0.360000	-16.290000	-5.190000	2.510000	0.930000	-0.040000	-0.000000	-0.000000	0.000000
3.580000	-0.000000	0.000000	-0.000000	-0.000000	0.000000	-0.000000	-0.000000	-0.000000	-0.000000	0.000000	-0.000000	-0.000000	-0.000000	0.000000	0.000000	0.000000	-0.000000	-0.000000	0.000000
3.590000	-0.000000	0.000000	-0.000000	-0.000000	0.000000	-0.000000	-0.000000	-0.000000	-0.000000	0.000000	-0.000000	-0.000000	-0.000000	0.000000	0.000000	0.000000	-0.000000	-0.000000	0.000000
3.600000	-0.000000	0.000000	-0.000000	-0.000000	0.000000	-0.000000	-0.000000	-0.000000	-0.000000	0.000000	-0.000000	-0.000000	-0.000000	0.000000	0.000000	0.000000	-0.000000	-0.000000	0.000000
3.610000	-0.000000	0.000000	-0.000000	-0.000000	0.000000	-0.000000	-0.000000	-0.000000	-0.000000	0.000000	-0.000000	-0.000000	-0.000000	0.000000	0.000000	0.000000	-0.000000	-0.000000	0.000000
